# xmcd
#
# Track frame offsets:
#	150
#	25686
#	45640
#	70945
#	97951
#	119359
#	154423
#	174699
#	199152
#	215632
#	234690
#	278219
#	298061
#
# Disc length: 4226 seconds
#
# Revision: 0
# Processed by: cddbd v1.5.2PL0 Copyright (c) Steve Scherf et al.
# Submitted via: dBpowerAMP V4.0
#
DISCID=c510800d
DTITLE=W.I.N.D. - W.I.N.D.
DYEAR=2000
DGENRE=Blues
TTITLE0=Keep On Living
TTITLE1=Angeline
TTITLE2=Over The Sun
TTITLE3=Walking Down The Line
TTITLE4=Good Girls...
TTITLE5=Bad Luck Blues
TTITLE6=We're Not Angels
TTITLE7=L.V. Is Driving Me Wild
TTITLE8=Wrong Side Of The Bed
TTITLE9=Statesboro Blues
TTITLE10=Freebird (bonus track)
TTITLE11=Dust My Broom (bonus track)
TTITLE12=Come Around To Me (bonus track)
EXTD=It is a new edition of the CD "W.I.N.D." (1st CD of the band W.I.N.D.) with 3 bonus Tracks. I bought this CD at the latest show of the band in Belgium.
EXTT0=
EXTT1=
EXTT2=
EXTT3=
EXTT4=
EXTT5=
EXTT6=
EXTT7=
EXTT8=
EXTT9=
EXTT10=
EXTT11=
EXTT12=
PLAYORDER=
